<?xml version="1.0" encoding="UTF-8"?>
<svg width="256" height="256" version="1.1" viewBox="0 0 51.2 51.2" xmlns="http://www.w3.org/2000/svg" xmlns:cc="http://creativecommons.org/ns#" xmlns:rdf="http://www.w3.org/1999/02/22-rdf-syntax-ns#" xmlns:xlink="http://www.w3.org/1999/xlink">
 <defs>
  <linearGradient id="linearGradient2270" x1="3.1898" x2="51.19" y1="30.446" y2="30.446" gradientUnits="userSpaceOnUse">
   <stop stop-color="#01b5fc" offset="0"/>
   <stop stop-color="#0056b4" stop-opacity=".80592" offset=".5"/>
   <stop stop-color="#e27619" offset="1"/>
  </linearGradient>
 </defs>
 <g transform="translate(-1.7297 -4.8)">
  <path d="m3.5789 11.246v9.6492h2.5465c0.329-1.2753 0.64078-2.3353 0.93516-3.1793 0.31169-0.86271 0.61383-1.5374 0.9082-2.025 0.31169-0.48762 0.62347-0.85307 0.93516-1.0969 0.31169-0.26256 0.6585-0.44997 1.0395-0.5625 0.39827-0.13128 0.93483-0.19688 1.6102-0.19688h9.4289l-17.793 34.433v1.3781h33.9c2.9495 0 5.461-0.35608 7.5352-1.0688 2.0741-0.73143 3.6817-1.9039 4.8234-3.5168 1.1608-1.6129 1.7414-3.6943 1.7414-6.2449 0-2.213-0.66604-4.1164-1.998-5.7105-1.332-1.6129-3.2914-2.8041-5.8793-3.573v-0.25312c1.6174-0.67516 2.9392-1.4072 3.9668-2.1949 1.0276-0.78769 1.8553-1.781 2.4832-2.9812 0.64698-1.2003 0.97031-2.6164 0.97031-4.248 0-1.9692-0.44628-3.5727-1.3406-4.8105-0.89435-1.2566-2.2652-2.2041-4.1109-2.8418-1.8268-0.63766-4.2529-0.95625-7.2785-0.95625h-15.613zm32.996 2.4762c1.1988 0 2.3123 0.11245 3.3398 0.3375 1.0276 0.2063 1.9122 0.56238 2.6543 1.0688 0.76115 0.50637 1.3509 1.1904 1.7695 2.0531 0.43766 0.84396 0.65742 1.9134 0.65742 3.2074 0 2.6256-0.77078 4.6321-2.3121 6.0199-1.5223 1.3691-3.7299 2.0543-6.6223 2.0543h-4.9957v-14.572c0.58989-0.03751 1.4757-0.07499 2.6555-0.1125 1.1798-0.03751 2.1304-0.05625 2.8535-0.05625zm-11.005 1.6629c0.5101-0.84887 0.81441-0.31931 0.8784-0.11234 0.32392 0.87863 0.24098 1.0333 0.24098 2.3274v21.76h-1.92c-0.41558 1.8942-0.89602 3.2533-1.1904 4.1535-0.29437 0.90022-0.62308 1.603-0.98672 2.1094-0.36364 0.48762-0.83131 0.85307-1.4027 1.0969-0.55411 0.22506-1.4109 0.3375-2.5711 0.3375h-9.3773zm5.4961 15.553h4.425c2.4737 0 4.4149 0.29048 5.823 0.87188 1.4081 0.58139 2.4441 1.4634 3.1102 2.6449 0.68504 1.1815 1.0277 2.682 1.0277 4.5012s-0.31307 3.3384-0.94102 4.5574c-0.60892 1.2003-1.6086 2.1092-2.9977 2.7281-1.3701 0.6189-3.301 0.92812-5.7938 0.92812-1.7126 0-3.2644-0.06559-4.6535-0.19688z" fill="url(#linearGradient2270)" stroke="#000" stroke-width=".4" style="paint-order:normal;shape-inside:url(#rect1315);white-space:pre"/>
 </g>
 <metadata>
  <rdf:RDF>
   <cc:Work rdf:about=""/>
  </rdf:RDF>
 </metadata>
</svg>
